<svg height="11" viewBox="0 0 1920 11" width="1920" xmlns="http://www.w3.org/2000/svg"><g fill="none" fill-rule="evenodd"><path d="m0 11.999h12.297v-11.999h-12.297z" fill="#004130"/><path d="m12.304 11.999h12.297v-11.999h-12.297z" fill="#006636"/><path d="m24.608 11.999h12.299v-11.999h-12.299z" fill="#00979a"/><path d="m36.914 11.999h12.297v-11.999h-12.297z" fill="#00acad"/><path d="m49.218 11.999h12.297v-11.999h-12.297z" fill="#5fc9f3"/><path d="m61.523 11.999h12.297v-11.999h-12.297z" fill="#87d4f7"/><path d="m73.825 11.999h12.299v-11.999h-12.299z" fill="#89d1ce"/><path d="m86.133 11.999h12.297v-11.999h-12.297z" fill="#012e31"/><path d="m98.437 11.999h12.297v-11.999h-12.297z" fill="#004c3f"/><path d="m110.741 11.999h12.297v-11.999h-12.297z" fill="#006a6f"/><path d="m123.045 11.999h12.299v-11.999h-12.299z" fill="#a93384"/><path d="m135.35 11.999h12.297v-11.999h-12.297z" fill="#a5206b"/><path d="m147.654 11.999h12.297v-11.999h-12.297z" fill="#db0b84"/><path d="m159.958 11.999h12.297v-11.999h-12.297z" fill="#ed1f8f"/><path d="m172.262 11.999h12.299v-11.999h-12.299z" fill="#ee65a5"/><path d="m184.568 11.999h12.297v-11.999h-12.297z" fill="#f38dba"/><path d="m196.874 11.999h12.297v-11.999h-12.297z" fill="#f7a5a9"/><path d="m209.176 11.999h12.299v-11.999h-12.299z" fill="#fbbb97"/><path d="m221.482 11.999h12.298v-11.999h-12.298z" fill="#f6967d"/><path d="m233.787 11.999h12.297v-11.999h-12.297z" fill="#f58453"/><path d="m246.091 11.999h12.297v-11.999h-12.297z" fill="#f36e24"/><path d="m258.395 11.999h12.299v-11.999h-12.299z" fill="#c75127"/><path d="m270.699 11.999h12.299v-11.999h-12.299z" fill="#84371b"/><path d="m283.005 11.999h12.297v-11.999h-12.297z" fill="#431b0c"/><path d="m295.311 11.999h12.297v-11.999h-12.297z" fill="#5d1544"/><path d="m307.613 11.999h12.299v-11.999h-12.299z" fill="#ae437c"/><path d="m319.92 11.999h12.297v-11.999h-12.297z" fill="#973b62"/><path d="m332.224 11.999h12.297v-11.999h-12.297z" fill="#ab4c4d"/><path d="m344.528 11.999h12.297v-11.999h-12.297z" fill="#ec7b70"/><path d="m356.832 11.999h12.299v-11.999h-12.299z" fill="#f19720"/><path d="m369.138 11.999h12.297v-11.999h-12.297z" fill="#b88c2d"/><path d="m381.442 11.999h12.297v-11.999h-12.297z" fill="#31150b"/><path d="m393.746 11.999h12.297v-11.999h-12.297z" fill="#67271b"/><path d="m406.05 11.999h12.298v-11.999h-12.298z" fill="#d55727"/><path d="m418.355 11.999h12.297v-11.999h-12.297z" fill="#776a2a"/><path d="m430.661 11.999h12.297v-11.999h-12.297z" fill="#c6ae2e"/><path d="m442.965 11.999h12.297v-11.999h-12.297z" fill="#e8c61d"/><path d="m455.269 11.999h12.299v-11.999h-12.299z" fill="#e5b622"/><path d="m467.575 11.999h12.297v-11.999h-12.297z" fill="#b3822c"/><path d="m479.879 11.999h12.297v-11.999h-12.297z" fill="#866427"/><path d="m492.183 11.999h12.297v-11.999h-12.297z" fill="#80732d"/><path d="m504.487 11.999h12.298v-11.999h-12.298z" fill="#1a563d"/><path d="m516.792 11.999h12.297v-11.999h-12.297z" fill="#07442e"/><path d="m529.098 11.999h12.297v-11.999h-12.297z" fill="#009749"/><path d="m541.402 11.999h12.297v-11.999h-12.297z" fill="#00a653"/><path d="m553.706 11.999h12.299v-11.999h-12.299z" fill="#03b14c"/><path d="m566.011 11.999h12.298v-11.999h-12.298z" fill="#8cc63f"/><path d="m578.315 11.999h12.297v-11.999h-12.297z" fill="#98ca3c"/><path d="m590.619 11.999h12.299v-11.999h-12.299z" fill="#064422"/><path d="m602.923 11.999h12.299v-11.999h-12.299z" fill="#006364"/><path d="m615.229 11.999h12.297v-11.999h-12.297z" fill="#00847c"/><path d="m627.533 11.999h12.297v-11.999h-12.297z" fill="#2c3552"/><path d="m639.837 11.999h12.299v-11.999h-12.299z" fill="#1c2130"/><path d="m652.143 11.999h12.297v-11.999h-12.297z" fill="#4b1928"/><path d="m664.448 11.999h12.297v-11.999h-12.297z" fill="#6d2d50"/><path d="m676.752 11.999h12.297v-11.999h-12.297z" fill="#b31e36"/><path d="m689.056 11.999h12.299v-11.999h-12.299z" fill="#760f21"/><path d="m701.362 11.999h12.297v-11.999h-12.297z" fill="#ae1e3a"/><path d="m713.666 11.999h12.297v-11.999h-12.297z" fill="#d61f45"/><path d="m725.97 11.999h12.297v-11.999h-12.297z" fill="#9d202e"/><path d="m738.274 11.999h12.299v-11.999h-12.299z" fill="#45140c"/><path d="m750.58 11.999h12.297v-11.999h-12.297z" fill="#f7a5a9"/><path d="m762.885 11.999h12.297v-11.999h-12.297z" fill="#f38dba"/><path d="m775.189 11.999h12.297v-11.999h-12.297z" fill="#ee65a5"/><path d="m787.491 11.999h12.299v-11.999h-12.299z" fill="#f06da9"/><path d="m799.799 11.999h12.297v-11.999h-12.297z" fill="#e86e28"/><path d="m812.103 11.999h12.297v-11.999h-12.297z" fill="#de4827"/><path d="m824.407 11.999h12.297v-11.999h-12.297z" fill="#d92426"/><path d="m836.711 11.999h12.298v-11.999h-12.298z" fill="#f04a25"/><path d="m849.016 11.999h12.297v-11.999h-12.297z" fill="#f15725"/><path d="m861.32 11.999h12.297v-11.999h-12.297z" fill="#f68a20"/><path d="m873.626 11.999h12.297v-11.999h-12.297z" fill="#faa21d"/><path d="m885.928 11.999h12.299v-11.999h-12.299z" fill="#9d3040"/><path d="m898.236 11.999h12.297v-11.999h-12.297z" fill="#d81d57"/><path d="m910.54 11.999h12.297v-11.999h-12.297z" fill="#776a2a"/><path d="m922.844 11.999h12.298v-11.999h-12.298z" fill="#ab9230"/><path d="m935.148 11.999h12.298v-11.999h-12.298z" fill="#e5b422"/><path d="m947.453 11.999h12.297v-11.999h-12.297z" fill="#fedf46"/><path d="m959.757 11.999h12.299v-11.999h-12.299z" fill="#ffea62"/><path d="m972.063 11.999h12.297v-11.999h-12.297z" fill="#e3a224"/><path d="m984.365 11.999h12.299v-11.999h-12.299z" fill="#52b848"/><path d="m996.671 11.999h12.299v-11.999h-12.299z" fill="#00b054"/><path d="m1008.976 11.999h12.298v-11.999h-12.298z" fill="#315732"/><path d="m1021.279 11.999h12.298v-11.999h-12.298z" fill="#e0e445"/><path d="m1033.584 11.999h12.297v-11.999h-12.297z" fill="#c5dd7b"/><path d="m1045.888 11.999h12.299v-11.999h-12.299z" fill="#dfeece"/><path d="m1058.194 11.999h12.299v-11.999h-12.299z" fill="#c0932d"/><path d="m1070.498 11.999h12.297v-11.999h-12.297z" fill="#ffe500"/><path d="m1082.802 11.999h12.299v-11.999h-12.299z" fill="#00baec"/><path d="m1095.108 11.999h12.298v-11.999h-12.298z" fill="#63cdf6"/><path d="m1107.413 11.999h12.297v-11.999h-12.297z" fill="#8ad7f8"/><path d="m1119.716 11.999h12.298v-11.999h-12.298z" fill="#f06da9"/><path d="m1132.021 11.999h12.297v-11.999h-12.297z" fill="#ed1f8f"/><path d="m1144.325 11.999h12.299v-11.999h-12.299z" fill="#f38dba"/><path d="m1156.631 11.999h12.299v-11.999h-12.299z" fill="#fbbb97"/><path d="m1168.935 11.999h12.297v-11.999h-12.297z" fill="#762b87"/><path d="m1181.239 11.999h12.299v-11.999h-12.299z" fill="#ae437c"/><path d="m1193.544 11.999h12.299v-11.999h-12.299z" fill="#935289"/><path d="m1205.848 11.999h12.297v-11.999h-12.297z" fill="#b481b9"/><path d="m1218.152 11.999h12.299v-11.999h-12.299z" fill="#cbaad1"/><path d="m1230.458 11.999h12.297v-11.999h-12.297z" fill="#72256d"/><path d="m1242.762 11.999h12.299v-11.999h-12.299z" fill="#9c248e"/><path d="m1255.066 11.999h12.299v-11.999h-12.299z" fill="#0485bd"/><path d="m1267.372 11.999h12.297v-11.999h-12.297z" fill="#25b3e8"/><path d="m1279.676 11.999h12.298v-11.999h-12.298z" fill="#4ac8f5"/><path d="m1291.981 11.999h12.299v-11.999h-12.299z" fill="#a4def3"/><path d="m1304.285 11.999h12.297v-11.999h-12.297z" fill="#0c0e1e"/><path d="m1316.589 11.999h12.299v-11.999h-12.299z" fill="#172e56"/><path d="m1328.895 11.999h12.299v-11.999h-12.299z" fill="#064422"/><path d="m1341.199 11.999h12.299v-11.999h-12.299z" fill="#18553d"/><path d="m1353.503 11.999h12.299v-11.999h-12.299z" fill="#7aaf42"/><path d="m1365.809 11.999h12.297v-11.999h-12.297z" fill="#abc837"/><path d="m1378.113 11.999h12.298v-11.999h-12.298z" fill="#cfdd28"/><path d="m1390.418 11.999h12.299v-11.999h-12.299z" fill="#98ca3c"/><path d="m1402.722 11.999h12.297v-11.999h-12.297z" fill="#c6ae2e"/><path d="m1415.026 11.999h12.299v-11.999h-12.299z" fill="#03b14c"/><path d="m1427.332 11.999h12.299v-11.999h-12.299z" fill="#ffcd06"/><path d="m1439.636 11.999h12.297v-11.999h-12.297z" fill="#ffe500"/><path d="m1451.94 11.999h12.298v-11.999h-12.298z" fill="#937f2f"/><path d="m1464.245 11.999h12.297v-11.999h-12.297z" fill="#e5b422"/><path d="m1476.549 11.999h12.299v-11.999h-12.299z" fill="#004130"/><path d="m1488.853 11.999h12.299v-11.999h-12.299z" fill="#006a6f"/><path d="m1501.159 11.999h12.297v-11.999h-12.297z" fill="#00979a"/><path d="m1513.463 11.999h12.299v-11.999h-12.299z" fill="#00acad"/><path d="m1525.769 11.999h12.298v-11.999h-12.298z" fill="#5fc9f3"/><path d="m1538.073 11.999h12.297v-11.999h-12.297z" fill="#87d4f7"/><path d="m1550.377 11.999h12.298v-11.999h-12.298z" fill="#89d1ce"/><path d="m1562.682 11.999h12.297v-11.999h-12.297z" fill="#012e31"/><path d="m1574.986 11.999h12.299v-11.999h-12.299z" fill="#004c3f"/><path d="m1587.29 11.999h12.299v-11.999h-12.299z" fill="#006a6f"/><path d="m1599.596 11.999h12.297v-11.999h-12.297z" fill="#a93384"/><path d="m1611.9 11.999h12.299v-11.999h-12.299z" fill="#a5206b"/><path d="m1624.204 11.999h12.299v-11.999h-12.299z" fill="#db0b84"/><path d="m1636.509 11.999h12.297v-11.999h-12.297z" fill="#ed1f8f"/><path d="m1648.813 11.999h12.299v-11.999h-12.299z" fill="#6d2d50"/><path d="m1661.119 11.999h12.299v-11.999h-12.299z" fill="#4b1928"/><path d="m1673.421 11.999h12.299v-11.999h-12.299z" fill="#1c2130"/><path d="m1685.727 11.999h12.299v-11.999h-12.299z" fill="#2c3552"/><path d="m1698.033 11.999h12.297v-11.999h-12.297z" fill="#00847c"/><path d="m1710.337 11.999h12.298v-11.999h-12.298z" fill="#006364"/><path d="m1722.641 11.999h12.298v-11.999h-12.298z" fill="#064422"/><path d="m1734.938 11.999h12.297v-11.999h-12.297z" fill="#c75127"/><path d="m1747.252 11.999h12.299v-11.999h-12.299z" fill="#84371b"/><path d="m1759.549 11.999h12.299v-11.999h-12.299z" fill="#45140c"/><path d="m1771.863 11.999h12.297v-11.999h-12.297z" fill="#5d1544"/><path d="m1784.16 11.999h12.299v-11.999h-12.299z" fill="#ae437c"/><path d="m1796.475 11.999h12.297v-11.999h-12.297z" fill="#973b62"/><path d="m1808.772 11.999h12.299v-11.999h-12.299z" fill="#ab4c4d"/><path d="m1821.069 11.999h12.299v-11.999h-12.299z" fill="#ec7b70"/><path d="m1833.383 11.999h12.297v-11.999h-12.297z" fill="#f68a20"/><path d="m1845.68 11.999h12.299v-11.999h-12.299z" fill="#b3822c"/><path d="m1857.995 11.999h12.298v-11.999h-12.298z" fill="#31150b"/><path d="m1870.292 11.999h12.297v-11.999h-12.297z" fill="#7a3318"/><path d="m1882.606 11.999h12.299v-11.999h-12.299z" fill="#d55727"/><path d="m1894.903 11.999h12.297v-11.999h-12.297z" fill="#776a2a"/><path d="m1907.2 11.999h12.299v-11.999h-12.299z" fill="#c6ae2e"/></g></svg>